<?xml version="1.0" encoding="UTF-8"?> <svg xmlns="http://www.w3.org/2000/svg" xmlns:xlink="http://www.w3.org/1999/xlink" width="164px" height="164px" viewBox="0 0 164 164"><!-- Generator: Sketch 52 (66869) - http://www.bohemiancoding.com/sketch --><title>Camp Zeke Logo</title><desc>Created with Sketch.</desc><g id="Symbols" stroke="none" stroke-width="1" fill="none" fill-rule="evenodd"><g id="nav" transform="translate(-95.000000, -19.000000)"><g id="Camp-Zeke-Logo"><g transform="translate(95.000000, 19.000000)"><circle id="Oval" fill="#FFFFFF" fill-rule="nonzero" cx="82" cy="82" r="81"></circle><path d="M136.830455,100.8679 C128.996545,123.64415 107.387694,140.019109 81.9560551,140.019109 C56.5251217,140.019109 34.9176809,123.64415 27.0837712,100.8679 L136.830455,100.8679 Z" id="Fill-1" fill="#004D9E"></path><path d="M81.955914,23.9754951 C107.390022,23.9754951 128.997815,40.3483381 136.830314,63.1270563 L27.082572,63.1270563 C34.915071,40.3483381 56.5228645,23.9754951 81.955914,23.9754951" id="Fill-3" fill="#FF9600"></path><path d="M81.9560903,0.152326022 C127.150258,0.152326022 163.80126,36.8036809 163.80126,81.9971432 C163.80126,127.190958 127.150258,163.84196 81.9560903,163.84196 C36.762628,163.84196 0.111273118,127.190958 0.111273118,81.9971432 C0.111273118,36.8036809 36.762628,0.152326022 81.9560903,0.152326022 M81.9560903,3.68978839 C125.197071,3.68978839 160.263798,38.756868 160.263798,81.9971432 C160.263798,125.237771 125.197071,160.304851 81.9560903,160.304851 C38.7161677,160.304851 3.64873548,125.237771 3.64873548,81.9971432 C3.64873548,38.756868 38.7161677,3.68978839 81.9560903,3.68978839" id="Fill-5" fill="#004D9E"></path><path d="M48.3726994,116.087911 C47.3865832,116.087911 46.8935252,115.569107 46.8935252,114.532204 L46.8935252,108.501236 C46.8935252,107.456221 47.3819983,106.933537 48.3596499,106.933537 L49.5330434,106.933537 C50.5099897,106.933537 50.9988155,107.456221 50.9988155,108.501236 L50.9988155,114.532204 C50.9988155,115.569107 50.5061101,116.087911 49.519994,116.087911 L48.3726994,116.087911 Z M48.6657832,114.978354 L49.290394,114.978354 C49.613809,114.978354 49.7753402,114.799894 49.7753402,114.442974 L49.7753402,108.578122 C49.7753402,108.221202 49.5922951,108.042036 49.2269101,108.042036 L48.6527338,108.042036 C48.2958133,108.042036 48.1173531,108.221202 48.1173531,108.578122 L48.1173531,114.442974 C48.1173531,114.799894 48.3000456,114.978354 48.6657832,114.978354 Z M55.3675639,111.357305 L55.3675639,106.933537 L56.5917445,106.933537 L56.5917445,116.087911 L55.3675639,116.087911 L55.3675639,114.264514 L54.0541531,110.095387 L54.0541531,116.087911 L52.8299725,116.087911 L52.8299725,106.933537 L54.0541531,106.933537 L55.3675639,111.357305 Z M63.2543768,116.087911 L63.2543768,111.931481 L61.7501617,111.931481 L61.7501617,116.087911 L60.5259811,116.087911 L60.5259811,106.933537 L61.7501617,106.933537 L61.7501617,110.821924 L63.2543768,110.821924 L63.2543768,106.933537 L64.4785574,106.933537 L64.4785574,116.087911 L63.2543768,116.087911 Z M66.3728456,116.087911 L67.5970262,116.087911 L67.5970262,106.933537 L66.3728456,106.933537 L66.3728456,116.087911 Z M73.1508069,113.945683 L73.1508069,114.532204 C73.1508069,115.569107 72.6619811,116.087911 71.6846822,116.087911 L70.8939553,116.087911 C69.9163037,116.087911 69.4278305,115.569107 69.4278305,114.532204 L69.4278305,108.488892 C69.4278305,107.451989 69.9163037,106.933537 70.8939553,106.933537 L71.6846822,106.933537 C72.6619811,106.933537 73.1508069,107.451989 73.1508069,108.488892 L73.1508069,109.521916 L71.9266262,109.521916 L71.9266262,108.578122 C71.9266262,108.221202 71.7439338,108.042036 71.3785488,108.042036 L71.136252,108.042036 C70.8135424,108.042036 70.6516585,108.221202 70.6516585,108.578122 L70.6516585,114.442974 C70.6516585,114.799894 70.8135424,114.978354 71.136252,114.978354 L71.4423854,114.978354 C71.7650951,114.978354 71.9266262,114.799894 71.9266262,114.442974 L71.9266262,113.945683 L73.1508069,113.945683 Z M74.8539381,116.087911 L76.0781187,116.087911 L76.0781187,106.933537 L74.8539381,106.933537 L74.8539381,116.087911 Z M78.8953918,116.087911 L77.6719166,116.087911 L76.1416026,111.612651 L76.1416026,111.536471 L77.4165703,106.933537 L78.5384714,106.933537 L77.2508069,111.484978 L78.8953918,116.087911 Z M81.5038735,116.087911 C80.5181101,116.087911 80.0246994,115.569107 80.0246994,114.532204 L80.0246994,108.501236 C80.0246994,107.456221 80.5135252,106.933537 81.4911768,106.933537 L82.6645703,106.933537 C83.6415166,106.933537 84.1303424,107.456221 84.1303424,108.501236 L84.1303424,114.532204 C84.1303424,115.569107 83.637637,116.087911 82.6515209,116.087911 L81.5038735,116.087911 Z M81.7973101,114.978354 L82.4215682,114.978354 C82.7449832,114.978354 82.9068671,114.799894 82.9068671,114.442974 L82.9068671,108.578122 C82.9068671,108.221202 82.7238219,108.042036 82.358437,108.042036 L81.783908,108.042036 C81.4273402,108.042036 81.24888,108.221202 81.24888,108.578122 L81.24888,114.442974 C81.24888,114.799894 81.4315725,114.978354 81.7973101,114.978354 Z M85.9614994,106.933537 L88.3583682,106.933537 C89.2936972,106.933537 89.761009,107.456221 89.761009,108.501236 L89.761009,110.75844 C89.761009,111.557279 89.5187123,112.063034 89.0341187,112.275352 L89.8883295,116.087911 L88.7279854,116.087911 L87.9252671,112.390681 L87.18568,112.390681 L87.18568,116.087911 L85.9614994,116.087911 L85.9614994,106.933537 Z M87.18568,111.344961 L87.9891037,111.344961 C88.3544886,111.344961 88.5371811,111.123825 88.5371811,110.68226 L88.5371811,108.705795 C88.5371811,108.263524 88.3544886,108.042036 87.9891037,108.042036 L87.18568,108.042036 L87.18568,111.344961 Z M93.5552284,116.087911 L92.3310477,116.087911 L92.3310477,112.722208 L90.8268327,106.933537 L92.0383166,106.933537 L92.9563639,110.911154 L92.9948069,110.911154 L93.8229187,106.933537 L95.0347553,106.933537 L93.5552284,112.722208 L93.5552284,116.087911 Z M101.429697,116.087911 L98.5224886,116.087911 L98.5224886,106.933537 L99.7466692,106.933537 L99.7466692,114.978354 L101.429697,114.978354 L101.429697,116.087911 Z M104.037826,116.087911 L102.813646,116.087911 L102.813646,108.501236 C102.813646,107.456221 103.302471,106.933537 104.280123,106.933537 L105.19817,106.933537 C106.175822,106.933537 106.664295,107.456221 106.664295,108.501236 L106.664295,116.087911 L105.440467,116.087911 L105.440467,112.7342 L104.037826,112.7342 L104.037826,116.087911 Z M105.440467,111.625701 L105.440467,108.578122 C105.440467,108.221202 105.262007,108.042036 104.905086,108.042036 L104.573207,108.042036 C104.216286,108.042036 104.037826,108.221202 104.037826,108.578122 L104.037826,111.625701 L105.440467,111.625701 Z M108.495099,116.087911 L109.71928,116.087911 L109.71928,106.933537 L108.495099,106.933537 L108.495099,116.087911 Z M112.536906,116.087911 L111.313078,116.087911 L109.783117,111.612651 L109.783117,111.536471 L111.057732,106.933537 L112.179985,106.933537 L110.891968,111.484978 L112.536906,116.087911 Z M113.985043,116.087911 L113.985043,106.933537 L117.019572,106.933537 L117.019572,108.042036 L115.209224,108.042036 L115.209224,110.821924 L116.815719,110.821924 L116.815719,111.931481 L115.209224,111.931481 L115.209224,114.978354 L117.019572,114.978354 L117.019572,116.087911 L113.985043,116.087911 Z" id="Fill-7" fill="#FFFFFF"></path><path d="M22.1110443,76.1525006 C19.0874486,76.1525006 16.2250314,78.3596232 16.2250314,81.515477 C16.2250314,82.4694985 16.4881368,83.3357006 16.9371088,84.0812834 C16.3830357,83.2785652 16.0518615,82.3178426 16.0518615,81.247434 C16.0518615,78.0919329 18.9142787,75.8844576 21.9378744,75.8844576 C23.3179432,75.8844576 24.6775561,76.3235544 25.768068,77.175649 L26.2494873,77.55232 L27.5780637,74.1728619 L27.801668,74.3132318 L26.4226572,77.820363 L25.9408852,77.443692 C24.850726,76.5915974 23.4911131,76.1525006 22.1110443,76.1525006 Z M142.6715,75.4354856 L150.651423,75.4354856 L150.651423,72.6665308 L139.834477,72.6665308 L139.834477,89.6900834 L150.482485,89.6900834 L150.482485,86.9221867 L142.6715,86.9221867 L142.6715,83.101163 L149.97532,83.101163 L149.97532,80.3332662 L142.6715,80.3332662 L142.6715,75.4354856 Z M94.2043862,86.6396834 L102.8851,73.2735071 L102.8851,72.3907286 L89.7386486,72.3907286 L89.7386486,75.1625049 L98.1502615,75.1625049 C95.6504077,78.9232189 98.924412,73.9982813 89.269926,88.5181006 L89.269926,89.4121652 L89.8391647,89.4121652 L91.7687217,89.4121652 L92.4046185,89.4121652 L94.6025712,89.4121652 L102.584963,89.4121652 L102.584963,86.6396834 L94.2043862,86.6396834 Z M110.209375,75.4354856 L118.188945,75.4354856 L118.188945,72.6665308 L107.372352,72.6665308 L107.372352,89.6900834 L118.02036,89.6900834 L118.02036,86.9221867 L110.209375,86.9221867 L110.209375,83.101163 L117.514253,83.101163 L117.514253,80.3332662 L110.209375,80.3332662 L110.209375,75.4354856 Z M131.593212,77.3131974 L133.907905,74.6204232 L135.214614,73.0968103 L131.924386,73.0968103 L125.181694,80.9494125 L125.181694,80.7448533 L125.181694,75.8573006 L125.181694,73.0968103 L122.242391,73.0968103 L122.242391,90.0805092 L125.181694,90.0805092 L125.181694,87.3196662 L125.181694,83.5053437 L125.181694,82.5947028 L132.495741,89.8304533 L136.047311,89.8304533 L134.672532,88.4726039 L132.238984,86.0623329 L130.865264,84.7037781 L128.966038,82.8250082 L127.824386,81.6985222 L128.480034,80.9377738 L130.286855,78.837163 L131.593212,77.3131974 Z M21.9378744,75.4284318 C23.5045153,75.4284318 24.9427776,75.9518211 26.0488077,76.8162598 L27.0656077,74.2303501 C25.5617454,73.2844404 23.7358787,72.7254297 21.767526,72.7254297 C16.6084034,72.7254297 12.4244637,76.5418684 12.4244637,81.247434 C12.4244637,85.9519415 16.6084034,89.7655587 21.767526,89.7655587 C23.7358787,89.7655587 25.5617454,89.2104275 27.0656077,88.2624017 L26.0488077,85.6761394 C24.9413669,86.5426942 23.5045153,87.0650254 21.9378744,87.0650254 C18.4367389,87.0650254 15.5958357,84.4590125 15.5958357,81.247434 C15.5958357,78.0337394 18.4367389,75.4284318 21.9378744,75.4284318 Z M83.3197239,78.9722426 C83.3197239,75.638634 80.7130056,72.9084748 77.5285841,72.9084748 L77.4629841,72.9084748 L73.5537884,72.9084748 L72.2435518,72.9084748 L71.6718443,72.9084748 L71.6718443,78.9722426 L71.6718443,89.929206 L74.5060465,89.929206 L74.5060465,85.0335415 L77.2672422,85.0335415 L77.4629841,85.0360103 L77.5285841,85.0360103 C80.7130056,85.0360103 83.3197239,82.3086727 83.3197239,78.9722426 Z M74.9423217,75.7328017 L75.9372551,75.7328017 L77.5285841,75.7328017 C79.2257196,75.7328017 80.6206013,77.1943415 80.6206013,78.9722426 C80.6206013,80.7487329 79.2257196,82.2116834 77.5285841,82.2116834 L77.4629841,82.2116834 L77.3568249,82.2085092 L77.3127389,82.2085092 L75.9372551,82.2085092 L74.9423217,82.2085092 L74.5060465,82.2085092 C74.5060465,79.9971544 74.5691776,78.1476576 74.5691776,75.7328017 L74.9423217,75.7328017 Z M58.1021669,85.2250512 L51.3150357,72.7278985 L49.4278013,72.7278985 L49.4278013,89.7489824 L52.2736422,89.7489824 L52.2736422,79.9319071 L57.3326013,89.7489824 L58.8720852,89.7489824 L63.9289282,79.9319071 L63.9289282,89.7489824 L66.7761798,89.7489824 L66.7761798,72.7278985 L64.8857712,72.7278985 C59.6479991,82.3763888 59.3630271,82.9018942 58.1021669,85.2250512 Z M45.4544163,78.8040103 C45.4544163,75.4629953 42.7224938,72.7278985 39.3790099,72.7278985 L37.5690142,72.7278985 C34.2262357,72.7278985 31.4918443,75.4629953 31.4918443,78.8040103 L31.4918443,89.7489824 L34.5087389,89.7489824 L34.5087389,85.872234 L42.4392852,85.872234 L42.4392852,89.7489824 L45.4544163,89.7489824 L45.4544163,78.8040103 Z M34.5087389,78.9151071 C34.5087389,77.0144705 36.0609196,75.4629953 37.95944,75.4629953 L38.9885841,75.4629953 C40.8853411,75.4629953 42.4392852,77.0144705 42.4392852,78.9151071 L42.4392852,83.242591 L34.5087389,83.242591 L34.5087389,78.9151071 Z M14.4883948,67.2912103 L151.488352,67.2912103 L151.488352,66.3646985 L14.4883948,66.3646985 L14.4883948,67.2912103 Z M14.4883948,97.6301523 L151.488352,97.6301523 L151.488352,96.7061092 L14.4883948,96.7061092 L14.4883948,97.6301523 Z M26.3711647,85.2483286 L26.4226572,85.2081222 L27.801668,88.7149006 L27.4821325,88.9159329 C25.8244981,89.9613006 23.8970572,90.4896275 21.9410486,90.4896275 C18.4568422,90.4896275 15.1239389,88.7290082 13.386597,85.9131458 C15.1662615,88.5720619 18.3954744,90.2219372 21.767526,90.2219372 C23.7238873,90.2219372 25.6516809,89.6936103 27.3089626,88.6482426 L27.6284981,88.4468576 L26.3711647,85.2483286 Z M143.300696,76.1599071 L143.300696,79.8768877 L143.127526,79.8768877 L143.127526,75.8918641 L151.107801,75.8918641 L151.107801,72.478548 L151.280971,72.478548 L151.280971,76.1599071 L143.300696,76.1599071 Z M150.431345,80.1445781 L150.604515,80.1445781 L150.604515,83.8255845 L143.300696,83.8255845 L143.300696,86.4661609 L143.127526,86.4661609 L143.127526,83.5575415 L150.431345,83.5575415 L150.431345,80.1445781 Z M150.938511,86.7342039 L151.111681,86.7342039 L151.111681,90.4145049 L139.551268,90.4145049 L139.551268,90.1464619 L150.938511,90.1464619 L150.938511,86.7342039 Z M103.040988,86.4517006 L103.214158,86.4517006 L103.214158,90.136234 L88.9870701,90.136234 L88.9870701,89.8685437 L103.040988,89.8685437 L103.040988,86.4517006 Z M97.1214701,75.8865738 L89.45544,75.8865738 L89.45544,75.6188834 L97.2992249,75.6188834 L97.1214701,75.8865738 Z M103.341479,72.2023931 L103.514296,72.2023931 L103.514296,73.6766297 L95.3915346,86.1836576 L95.0444895,86.1836576 L103.341479,73.4085867 L103.341479,72.2023931 Z M110.838571,76.1599071 L110.838571,79.8768877 L110.665401,79.8768877 L110.665401,75.8918641 L118.644971,75.8918641 L118.644971,72.478548 L118.818141,72.478548 L118.818141,76.1599071 L110.838571,76.1599071 Z M117.970631,80.1445781 L118.143801,80.1445781 L118.143801,83.8255845 L110.838571,83.8255845 L110.838571,86.4661609 L110.665401,86.4661609 L110.665401,83.5575415 L117.970631,83.5575415 L117.970631,80.1445781 Z M118.476386,86.7342039 L118.649909,86.7342039 L118.649909,90.4145049 L107.089143,90.4145049 L107.089143,90.1464619 L118.476386,90.1464619 L118.476386,86.7342039 Z M137.059879,90.2864791 L137.330743,90.5548748 L132.481634,90.5548748 L125.810889,83.9553738 L125.810889,90.8045781 L121.959182,90.8045781 L121.959182,90.5365351 L125.63772,90.5365351 L125.63772,83.6873308 L132.308464,90.2864791 L137.059879,90.2864791 Z M125.63772,72.9088275 L125.810889,72.9088275 L125.810889,79.5167931 L125.63772,79.7178254 L125.63772,72.9088275 Z M135.976773,72.9088275 L136.379896,72.9088275 L134.427062,75.1857824 L130.806012,79.4025222 L128.666958,81.8886211 L128.448292,81.6731286 L130.632842,79.1344791 L134.253892,74.918092 L135.976773,72.9088275 Z M75.1352422,85.7572576 L75.1352422,90.6529222 L71.3889884,90.6529222 L71.3889884,90.3848791 L74.9624249,90.3848791 L74.9624249,85.4895673 L77.265126,85.4895673 L77.4576938,85.4920361 L77.5285841,85.4920361 C81.0692206,85.4920361 83.7757497,82.4479845 83.7757497,78.9722426 C83.7757497,77.7078555 83.4163604,76.5009566 82.7892809,75.4763974 C83.5225196,76.5552705 83.9489196,77.8637437 83.9489196,79.2399329 C83.9489196,82.7156748 81.2423905,85.7604318 77.701754,85.7604318 L77.6308637,85.7604318 L77.4386486,85.7572576 L75.1352422,85.7572576 Z M67.2322056,72.5392103 L67.4053755,72.5392103 L67.4053755,90.4730512 L63.6460723,90.4730512 L63.6460723,90.2050082 L67.2322056,90.2050082 L67.2322056,72.5392103 Z M63.4729024,82.418006 L59.3231733,90.4730512 L57.2278529,90.4730512 L57.0899518,90.2050082 L59.1503561,90.2050082 L63.4729024,81.8134985 L63.4729024,82.418006 Z M52.9028378,82.1485523 L52.9028378,90.4730512 L49.1445927,90.4730512 L49.1445927,90.2050082 L52.729668,90.2050082 L52.729668,81.8127931 L52.9028378,82.1485523 Z M41.9832594,86.5959501 L35.1379346,86.5959501 L35.1379346,90.4730512 L31.2089884,90.4730512 L31.2089884,90.2050082 L34.9647647,90.2050082 L34.9647647,86.3282598 L41.9832594,86.3282598 L41.9832594,86.5959501 Z M44.9486615,75.4040963 C45.6639131,76.4512275 46.0839647,77.7145566 46.0839647,79.0720533 L46.0839647,90.4730512 L42.1564292,90.4730512 L42.1564292,90.2050082 L45.9104422,90.2050082 L45.9104422,78.8040103 C45.9104422,77.5604318 45.557754,76.3958555 44.9486615,75.4040963 Z M75.1983733,76.4568705 L75.1983733,81.7521308 L75.0252034,81.7521308 L75.0252034,76.1888275 L77.5285841,76.1888275 C78.5072938,76.1888275 79.3297626,76.749249 79.7836723,77.5456189 C79.308954,76.8938512 78.5668981,76.4568705 77.701754,76.4568705 L75.1983733,76.4568705 Z M41.5868378,77.431348 C41.0415819,76.6787114 40.1566873,76.1874168 39.1621067,76.1874168 L38.1326099,76.1874168 C36.4848508,76.1874168 35.1379346,77.535391 35.1379346,79.1827974 L35.1379346,82.7865652 L34.9647647,82.7865652 L34.9647647,78.9151071 C34.9647647,77.267348 36.3116809,75.9193738 37.95944,75.9193738 L38.9885841,75.9193738 C40.0974357,75.9193738 41.0690916,76.5295243 41.5868378,77.431348 Z" id="Fill-9" fill="#004D9E"></path><path d="M24.8615888,58.580271 L16.1255028,54.5070753 L17.9041092,50.6927527 L18.3946985,50.9216473 L18.8888146,51.1519527 L17.6671028,53.7717204 L20.4332361,55.0622065 L21.5999286,52.5605892 L22.0901652,52.7887785 L22.584634,53.0194366 L21.4179415,55.5210538 L25.4181308,57.3867742 L25.1412705,57.9803484 L24.8615888,58.580271 Z M27.2080232,53.5967871 L18.6976576,49.0714452 L19.0052017,48.4926839 L19.31592,47.9082796 L27.826991,52.4336215 L27.5194469,53.0123828 L27.2080232,53.5967871 Z M29.690948,49.2971656 L22.5179759,44.6392129 L21.3093135,46.5007011 L20.8561092,46.2062065 L20.39832,45.9088903 L23.5330125,41.0805892 L23.9872748,41.3754366 L24.4447114,41.6727527 L23.236049,43.5342409 L30.4086684,48.1918409 L30.0513953,48.7416817 L29.690948,49.2971656 Z M33.1779759,44.1909462 L32.7833178,44.6783613 L32.3868963,45.1678925 L24.8961523,39.1016559 L25.5489781,38.2950581 L26.2081523,37.4814065 L34.2392146,40.7871527 L27.7716189,35.550086 L28.154991,35.0767785 L28.5411845,34.6006495 L36.0319286,40.6665333 L35.3833351,41.4671355 L34.7301566,42.274086 L26.7474125,38.9831527 L33.1779759,44.1909462 Z M37.1838082,39.4913763 L30.6097006,32.4418452 L33.7676705,29.4965462 L34.1369351,29.8922624 L34.5090211,30.2911527 L32.3138899,32.3378022 L34.3958082,34.5703183 L36.4607974,32.6442882 L36.8297092,33.0400043 L37.202148,33.4392473 L35.136806,35.3649247 L37.4060017,37.7984731 L39.6660275,35.6911613 L40.0345867,36.0868774 L40.4066727,36.4854151 L37.1838082,39.4913763 Z M40.2737092,27.6149548 L40.0973652,27.3888817 C39.7556103,26.9515484 39.4413652,26.6933806 39.1567458,26.6207269 C38.8682469,26.5466624 38.559292,26.6404774 38.2249437,26.9018194 C37.8517996,27.1927871 37.6479458,27.4883398 37.6130297,27.7881247 C37.5781135,28.0879097 37.7071974,28.4243742 38.0020447,28.8006925 C38.2404619,29.1061204 38.4975716,29.2835226 38.7737265,29.3343097 C39.0498813,29.3843914 39.547877,29.3445376 40.2666555,29.2158065 C41.3822082,29.0147742 42.1838684,28.9657505 42.66952,29.071557 C43.1530555,29.1791269 43.6006168,29.4983097 44.0125566,30.0255785 C44.5793265,30.7514108 44.8188017,31.4402108 44.7323931,32.0909204 C44.6456318,32.7412774 44.2333394,33.3567183 43.4948103,33.9337161 C42.7026727,34.5523312 41.9972963,34.8048559 41.3815028,34.6909376 C40.8147329,34.5861892 40.2331501,34.1530882 39.6374598,33.3905763 L39.4836877,33.1821376 L39.3073437,32.9560645 L40.3618813,32.1321849 L40.5385781,32.3579054 C40.9931931,32.9553591 41.3853824,33.3062839 41.7116189,33.4089161 C42.0382082,33.5122538 42.4085308,33.4032731 42.8254082,33.0777419 C43.2444017,32.7500946 43.4729437,32.4178624 43.5096232,32.078929 C43.5459501,31.7424645 43.3939415,31.3552129 43.0553609,30.9214065 C42.7971931,30.5909376 42.511163,30.399428 42.1940963,30.3454667 C41.8816146,30.2936215 41.319077,30.3429978 40.5004877,30.4911269 C39.5408232,30.6607699 38.8068791,30.690043 38.2905437,30.5789462 C37.7802039,30.4682022 37.350277,30.1860516 36.9972361,29.7339054 C36.47032,29.0595656 36.2534168,28.4152043 36.3458211,27.8015269 C36.4392834,27.1874968 36.8434641,26.6023871 37.5580103,26.0440817 C38.3035931,25.4614409 38.9444275,25.2092688 39.4815716,25.2868602 C39.9774512,25.3612774 40.4881437,25.7305419 41.0132963,26.3950065 L41.1409695,26.5734667 L41.3173135,26.7995398 L40.2737092,27.6149548 Z M46.452806,23.4112645 L46.3007974,23.1682624 C46.0070082,22.6977763 45.7216834,22.4082194 45.4455286,22.3059398 C45.1661996,22.2022495 44.8494856,22.2629118 44.4897437,22.4882796 C44.0883845,22.7386882 43.8549049,23.0109634 43.7885996,23.3054581 C43.7222942,23.6003054 43.8157566,23.9480559 44.0693394,24.3536473 C44.2742512,24.682 44.511963,24.8851484 44.7814168,24.9645032 C45.0508705,25.0435054 45.550277,25.0558495 46.2785781,25.0025935 C47.4089437,24.9200645 48.2113092,24.9549806 48.683206,25.1108688 C49.152634,25.2685204 49.5645738,25.6324946 49.9190254,26.1999699 C50.4067931,26.9811742 50.5736146,27.6907828 50.4191372,28.3291484 C50.2650125,28.9671613 49.7899415,29.5353419 48.9956877,30.0322796 C48.1432404,30.5648387 47.4156447,30.7418882 46.8150168,30.5648387 C46.2620017,30.4015441 45.7290899,29.9098968 45.2162813,29.0888387 L45.0850813,28.8662925 L44.9334254,28.6229376 L46.0683759,27.913329 L46.2203845,28.1566839 C46.6104576,28.7982237 46.9634985,29.1882968 47.277391,29.3240817 C47.5909308,29.4612774 47.9707759,29.3914452 48.4193953,29.1110581 C48.8701308,28.8292602 49.1325308,28.5227742 49.2044791,28.1891312 C49.2757222,27.8590151 49.1653308,27.4573032 48.8733049,26.9906968 C48.6514641,26.6348344 48.3873006,26.414757 48.0776404,26.3279957 C47.7718598,26.2437032 47.2068533,26.233828 46.3773308,26.2959011 C45.4056748,26.3643226 44.6717308,26.3167097 44.1702082,26.1520043 C43.675034,25.9887097 43.2764963,25.6628258 42.9724791,25.1764688 C42.5189222,24.4506366 42.3711458,23.7872301 42.5266813,23.1869548 C42.6836275,22.5856215 43.1474125,22.0460086 43.9162727,21.5652946 C44.718991,21.0634194 45.3823974,20.8800215 45.9086082,21.0129849 C46.3932017,21.1388946 46.8629824,21.560357 47.315834,22.2752559 L47.4241092,22.4664129 L47.5757652,22.7097677 L46.452806,23.4112645 Z M56.2804619,17.1648043 C56.1090555,16.6371828 56.1721867,16.138129 56.472677,15.6679957 C56.7706985,15.1960989 57.2436533,14.8561075 57.8890727,14.6469634 C58.5761092,14.4230065 59.1654512,14.4029032 59.6556877,14.5894753 C60.1452189,14.7760473 60.4778039,15.1439011 60.6566168,15.6937419 C60.850948,16.2922538 60.84072,16.8646667 60.6273437,17.4148602 C60.4651071,17.8447871 60.1508619,18.3025763 59.6821394,18.7910495 L62.44792,20.6327871 C62.4373394,20.4504473 62.4045394,20.2353075 62.3530469,19.9870151 C62.245477,19.4756172 62.0292791,18.7413204 61.704806,17.7876516 L62.2564103,17.6088387 L62.8083673,17.4293204 C63.2333566,18.7374409 63.4809437,19.6106968 63.5535974,20.0529677 C63.6153178,20.4472731 63.5934512,20.8690882 63.4855286,21.3155914 L65.2697781,22.505914 L64.5961437,22.7245806 L63.9129867,22.9467742 L63.0545437,22.3800043 C62.9081781,22.6237118 62.7364189,22.8511957 62.5367974,23.0656301 C62.1149824,23.5036688 61.5898297,23.8246151 60.961692,24.0284688 C60.0126082,24.3367183 59.1975458,24.3487097 58.5150942,24.0655011 C57.834406,23.7819398 57.3610985,23.2320989 57.0969351,22.4180946 C56.8814426,21.7546882 56.8782684,21.1261978 57.0874125,20.5315656 C57.2507071,20.0614323 57.5617781,19.5627312 58.0230942,19.0354624 C57.5374426,18.7032301 57.1692361,18.4157892 56.9234125,18.1720817 C56.6119888,17.8610108 56.3979071,17.5263097 56.2804619,17.1648043 Z M60.5691501,23.1143011 C60.9817953,22.9799269 61.3577609,22.7277548 61.7016318,22.3581376 C61.8748017,22.1673333 62.0194039,21.9712387 62.1336748,21.7645634 L58.8515587,19.5927097 C58.5620017,19.9242366 58.3563845,20.2416559 58.2322383,20.538972 C58.0622426,20.9593763 58.0495458,21.3949462 58.1959114,21.8456817 C58.3715501,22.3867054 58.6843845,22.7750151 59.1301824,23.0155484 C59.5692791,23.2504387 60.0503458,23.2825333 60.5691501,23.1143011 Z M57.4570297,16.9154538 C57.5215716,17.1143699 57.6682899,17.3168129 57.8982426,17.5263097 C58.0918684,17.6991269 58.3944748,17.9297849 58.8081781,18.2168731 C59.1284189,17.8871097 59.3527286,17.581329 59.4814598,17.2991785 C59.6659157,16.9084 59.6930727,16.5095097 59.5608146,16.1014495 C59.4779329,15.8464559 59.309348,15.6687011 59.0561178,15.5667742 C58.8053566,15.4669634 58.5189738,15.4690796 58.2043759,15.5713591 C57.8869566,15.6743441 57.6601781,15.8510409 57.5212189,16.1021548 C57.3840232,16.3525634 57.3621566,16.624486 57.4570297,16.9154538 Z M80.2971157,17.1087269 L80.3172189,17.3954624 C80.4226727,18.4369505 80.2942942,19.2054581 79.9310254,19.6964 C79.5681092,20.1866366 78.9258641,20.4652602 78.0092275,20.5290968 C77.1045824,20.5925806 76.4200146,20.4254065 75.9572877,20.0254581 C75.4924447,19.6279785 75.2293394,18.9800903 75.1669135,18.0846151 L74.867834,13.8047441 C74.7951802,12.7674882 74.9545953,12.0056817 75.3474899,11.5136817 C75.7410899,11.0230925 76.4161351,10.7444688 77.3743888,10.6774581 C78.2839716,10.6143269 78.9473781,10.7779742 79.3674297,11.1694581 C79.7441006,11.507686 79.9550082,12.0511785 80.0029738,12.8009935 L80.018492,13.1219398 L80.0382426,13.4083226 L78.7241265,13.5000215 L78.7040232,13.2143441 C78.6825092,12.6309978 78.5816404,12.2363398 78.4038856,12.0264903 C78.2278942,11.8169935 77.912591,11.7288215 77.4618555,11.7605634 C76.9638598,11.7954796 76.6125824,11.9488989 76.409434,12.2176473 C76.2059329,12.4867484 76.1262254,12.9106796 76.1664318,13.4876774 L76.4655114,17.766843 C76.5124189,18.4394194 76.6379759,18.897914 76.8418297,19.1380946 C77.0456834,19.3793333 77.3966082,19.4830237 77.8917824,19.4484602 C78.3428705,19.417071 78.6535888,19.2477806 78.826406,18.9409419 C78.9992232,18.6344559 79.0581222,18.1488043 79.0027501,17.4868086 L78.9829996,17.2007785 L80.2971157,17.1087269 Z M87.7303716,18.050757 C87.715206,18.9067312 87.4803157,19.543686 87.0232318,19.9623269 C86.5679114,20.3809677 85.8907501,20.582 84.992806,20.5657763 C84.0930985,20.5502581 83.4208748,20.3263011 82.9810727,19.8921419 C82.5380963,19.4572774 82.3254254,18.8125634 82.340591,17.9569419 L82.466148,10.764572 L83.1214426,10.7762108 L83.7834383,10.7878495 L83.6642297,17.6183613 C83.6529437,18.2595484 83.7538125,18.7325032 83.970363,19.0329935 C84.1865609,19.3324258 84.5339587,19.4858452 85.0114985,19.493957 C85.5013824,19.5027742 85.8540705,19.3638151 86.0734426,19.0784903 C86.2924619,18.7931656 86.4081437,18.3216215 86.4197824,17.6666796 L86.538991,10.8361677 L87.1942856,10.8478065 L87.8559286,10.8590925 L87.7303716,18.050757 Z M89.4867587,20.7773892 L90.661563,11.2100172 L91.31192,11.2897247 L91.9689781,11.3704903 L90.9264318,19.8596946 L93.7080834,20.2007441 L93.6421308,20.7378882 L93.5758254,21.2792645 L89.4867587,20.7773892 Z M94.7192404,21.7046065 L96.8875673,12.3128731 L97.5259329,12.4599441 L98.1709996,12.6087785 L96.00232,22.0012172 L95.3639544,21.8537935 L94.7192404,21.7046065 Z M98.9747759,22.7231699 L98.3780275,22.5291914 L97.7788103,22.3348602 L100.757967,13.1670839 L101.744436,13.4880301 L102.740428,13.8114452 L102.532342,22.4939226 L105.104144,14.5799527 L105.683258,14.7675828 L106.266251,14.957329 L103.2878,24.1244 L102.307326,23.8059226 L101.320505,23.4856817 L101.531412,14.853286 L98.9747759,22.7231699 Z M104.512333,24.5275226 L110.448075,16.6191957 L111.246561,16.9747054 L112.052101,17.3337419 L110.142647,27.0344301 L109.506045,26.7505161 L108.862036,26.464486 L109.346277,24.2884 L106.99032,23.2391527 L105.683963,25.0491484 L105.098148,24.7885118 L104.512333,24.5275226 Z M110.729167,18.046172 L107.640677,22.3397978 L109.601271,23.2119957 L110.722466,18.0429978 L110.729167,18.046172 Z M111.336849,27.8283312 L116.009967,19.3980258 L116.589081,19.7186194 L118.679464,20.8775527 C119.377081,21.2640989 119.797838,21.7215355 119.94244,22.249157 C120.087043,22.7774839 119.960075,23.3999785 119.563653,24.1159355 L119.609855,24.0327011 C119.183455,24.8015613 118.68546,25.2530022 118.118337,25.3863183 C117.739197,25.4776645 117.292342,25.4293462 116.774948,25.2417161 C117.264479,25.5608989 117.552625,25.8776129 117.640445,26.1908 C117.740608,26.5635914 117.603765,27.1032043 117.22921,27.8075226 C116.956935,28.3178624 116.744617,28.7544903 116.59543,29.1195226 L116.509021,29.328314 C116.415911,29.5639097 116.341142,29.7656473 116.284711,29.9391699 C116.229339,30.110929 116.179963,30.2915054 116.136582,30.4805462 L115.531369,30.1451398 L114.927567,29.8107914 C115.013976,29.5201763 115.084866,29.2951613 115.13918,29.1392731 C115.192436,28.9816215 115.24146,28.8546538 115.284135,28.7576645 L115.365253,28.568271 C115.523963,28.2004172 115.719352,27.7994108 115.947542,27.3687785 C116.241331,26.8199957 116.354896,26.3734925 116.285064,26.0342065 C116.215232,25.6938624 115.957417,25.3986624 115.506681,25.1489591 L114.611559,24.6530796 L112.49543,28.4702237 L111.915963,28.1496301 L111.336849,27.8283312 Z M115.138475,23.7025849 L116.051585,24.2090452 C116.631051,24.5299914 117.085314,24.637914 117.41684,24.5310495 C117.74872,24.4270065 118.084479,24.0669118 118.423412,23.4553505 L118.37721,23.5389376 C118.633967,23.0758581 118.704505,22.6991871 118.586002,22.4071613 C118.470673,22.1158409 118.126096,21.8132344 117.555094,21.4965204 L116.641632,20.9904129 L115.138475,23.7025849 Z M121.239275,29.3187914 L122.93641,23.5526925 L123.524342,24.0115398 L124.110862,24.4696817 L122.626045,28.722043 L122.620049,28.7255699 L126.385348,26.2465247 L126.917907,26.6630495 L127.456462,27.0834538 L122.286053,30.1186882 L119.783731,33.3214495 L119.268101,32.9179742 L118.746122,32.5106194 L121.239275,29.3187914 Z M124.485417,37.2913075 L132.951696,32.181914 L133.558673,32.8114624 L134.171645,33.445243 L128.766698,41.7245978 L128.282458,41.2230753 L127.792574,40.7162624 L129.056961,38.8798151 L127.26601,37.025028 L125.37666,38.2139398 L124.930862,37.7526237 L124.485417,37.2913075 Z M132.677305,33.6106538 L128.205572,36.4342753 L129.696385,37.9776387 L132.67272,33.6053634 L132.677305,33.6106538 Z M129.526036,42.7879527 L137.01678,36.7217161 L137.433658,37.2359355 L138.937167,39.0935441 C139.439395,39.7132172 139.658415,40.2951527 139.594578,40.8386452 C139.530742,41.3824903 139.180169,41.9125806 138.54392,42.4271527 L138.617985,42.3675484 C137.934828,42.9205634 137.304221,43.1526323 136.727929,43.0641075 C136.34244,43.006972 135.946019,42.7943011 135.537253,42.4264473 C135.871249,42.9057505 136.019378,43.3078151 135.983757,43.630172 C135.936849,44.0142495 135.607791,44.4635742 134.996935,44.9760301 C134.553606,45.3470581 134.192806,45.6718839 133.917709,45.9547398 L133.759352,46.1155656 C133.584772,46.2996688 133.440169,46.4583785 133.322372,46.5987484 C133.207043,46.7373548 133.093477,46.8858366 132.98238,47.0448989 L132.54681,46.5074022 L132.112298,45.9709634 C132.301692,45.7336043 132.451232,45.5519699 132.560212,45.427471 C132.668488,45.3012086 132.76195,45.2021032 132.837778,45.1283914 L132.983438,44.9830839 C133.269116,44.701286 133.599937,44.4025591 133.973081,44.0890194 C134.450974,43.6897763 134.723602,43.3191011 134.786028,42.9776989 C134.848453,42.6359441 134.720075,42.2659742 134.395602,41.8653204 L133.751593,41.0703613 L130.359438,43.8167441 L129.942561,43.3025247 L129.526036,42.7879527 Z M134.595929,40.3864989 L135.252987,41.1980344 C135.669864,41.7126065 136.050767,41.983471 136.398165,42.0081591 C136.744858,42.0360215 137.191361,41.8275828 137.734501,41.3877806 L137.660436,41.4477376 C138.071671,41.1144473 138.278698,40.7917376 138.277993,40.4767871 C138.279757,40.1636 138.074492,39.754129 137.662905,39.2466108 L137.005847,38.4343699 L134.595929,40.3864989 Z M134.616385,50.0265247 L142.022836,45.7501806 L140.912926,43.8280301 L141.381296,43.557871 L141.854251,43.2845376 L144.732539,48.2701376 L144.263817,48.5406495 L143.791215,48.8132774 L142.68201,46.8911269 L135.275206,51.167471 L134.947206,50.6003484 L134.616385,50.0265247 Z M144.942742,54.7860516 L145.201967,54.6647269 C145.705253,54.4301892 146.026905,54.1826022 146.162337,53.9209075 C146.298828,53.6567441 146.277666,53.3343871 146.098148,52.949957 C145.898526,52.5210882 145.656582,52.2558667 145.372316,52.1539398 C145.088049,52.0527183 144.730776,52.1031527 144.297675,52.305243 C143.946397,52.469243 143.716092,52.6797978 143.60429,52.9372602 C143.493193,53.195428 143.420187,53.6898968 143.384212,54.4189032 C143.328488,55.5513849 143.19623,56.3431699 142.983559,56.7924946 C142.770182,57.2389978 142.358948,57.6036774 141.751972,57.8865333 C140.917511,58.2755484 140.192385,58.3541978 139.578002,58.1235398 C138.963972,57.892529 138.456806,57.3522108 138.060737,56.5025849 C137.636453,55.5919441 137.548987,54.8481247 137.798337,54.2735957 C138.027585,53.7449161 138.5806,53.2754882 139.457382,52.8667226 L139.695094,52.7637376 L139.955378,52.6424129 L140.52109,53.8556602 L140.260806,53.9769849 C139.576591,54.2859398 139.146664,54.5888989 138.973142,54.8837462 C138.799266,55.1782409 138.821838,55.563729 139.045443,56.0437376 C139.270105,56.525157 139.543086,56.8224731 139.864737,56.934628 C140.184273,57.0457247 140.59586,56.9847097 141.094561,56.7519355 C141.475111,56.574886 141.725873,56.339643 141.849666,56.0426796 C141.970286,55.7499484 142.049288,55.1905849 142.088436,54.3600043 C142.139223,53.3862323 142.275714,52.6646323 142.500376,52.1863871 C142.722922,51.7144903 143.094303,51.358628 143.614518,51.1163312 C144.390079,50.7548258 145.066535,50.6888731 145.643533,50.9167097 C146.221589,51.1456043 146.700892,51.6711097 147.083911,52.4932258 C147.484212,53.3509634 147.585081,54.0316516 147.388987,54.5381118 C147.204883,55.0040129 146.729812,55.4187742 145.964832,55.7806323 L145.761683,55.8649247 L145.502458,55.9866022 L144.942742,54.7860516 Z" id="Fill-11" fill="#004D9E"></path><path d="M77.715403,49.10488 C77.6198245,51.0316155 77.3154546,54.8074951 76.4975708,56.2432886 C75.7555148,57.5461187 74.7556439,57.3196929 74.0929428,56.5349617 C73.3558245,57.249508 72.3242116,57.9682865 71.3909987,57.8395553 C70.6641084,57.7390391 70.3332869,57.3242778 70.253932,56.8245187 C69.625089,57.091151 68.9309987,57.2403381 68.3423622,57.0759854 C67.7413815,56.9084585 67.426431,56.5166219 67.3343794,56.0581273 C66.3045299,56.4707725 64.9893557,56.8075897 64.3700353,56.1826262 C63.9870159,55.7974908 63.8649858,55.2702219 63.9143622,54.7535338 C63.0555665,54.790566 62.1375191,54.5905918 62.0666288,53.7056972 C62.0398245,53.3717015 62.0987234,53.0073746 62.2313342,52.668794 C61.4910417,52.533009 60.7454589,52.2237015 60.5250288,51.6008542 C60.3934761,51.2270047 60.4724783,50.8612671 60.663988,50.531151 C60.0834632,50.4493273 59.5918159,50.1960972 59.5117557,49.6088714 C59.4412181,49.0897144 59.7886159,48.5515123 60.2372353,48.0961918 C59.9145256,47.9403037 59.6514202,47.6916585 59.5121084,47.3361488 C59.2356009,46.6307725 59.8570374,45.8929488 60.5581815,45.3335854 C60.4629557,45.3018434 60.3694933,45.2690434 60.2795578,45.2351854 C59.4669643,44.9301101 58.4272396,44.293508 58.8991363,43.3454822 C59.1636525,42.8136284 59.7967277,42.4433058 60.5028095,42.1950133 C59.8351708,41.7686133 59.4013643,41.1126133 60.0175105,40.363151 C60.8304568,39.373508 65.3896568,39.909594 66.5944396,40.0252757 C68.077846,40.1684671 69.5750073,40.3430477 71.0594718,40.5472542 C71.0404267,40.5349101 71.0217342,40.5229187 71.0037471,40.5109273 C70.6094417,40.2502908 70.3925385,39.9371037 70.4073514,39.6676499 C69.8247105,39.2853359 69.1380267,38.7171553 68.705631,38.3778692 C68.3183794,38.0742047 67.9339492,37.767366 67.5512826,37.4591166 C67.4112654,37.3596585 67.2712482,37.2594951 67.1329944,37.1575682 L67.1121858,37.1424026 L67.092788,37.1254735 C66.9291406,36.9812241 66.7672568,36.8359166 66.6057256,36.6899037 C65.2849084,35.4988757 63.2678847,33.6751252 62.336788,32.2209918 C61.8747665,31.5004499 61.5629901,31.0747553 60.7507492,30.7206563 C60.4350933,30.583108 60.1755148,30.4483811 59.9102933,30.2342994 C59.6186202,29.9990563 59.4249944,29.6774047 59.5142245,29.310609 C59.5240998,29.2689918 59.5382073,29.2287854 59.5547837,29.1903424 C59.265932,29.0961746 59.0060009,28.9660327 58.8099062,28.7918047 C58.6265084,28.6278047 58.5164697,28.4130176 58.5337514,28.1735424 C58.5411578,28.0677359 58.5739578,27.9700413 58.6265084,27.8801058 C57.8664654,27.7619553 57.1346374,27.5598649 56.6098374,27.2445617 C56.2786632,27.0456456 56.006388,26.7440972 56.0557643,26.3557875 C56.0744568,26.2083639 56.1414675,26.0771639 56.2448052,25.9600714 C55.6759191,25.84968 55.1645213,25.6803897 54.8195923,25.428923 C54.5794116,25.2543424 54.4168224,25.0088714 54.444332,24.717551 C54.4686675,24.4597359 54.6584138,24.2498865 54.9462073,24.0788327 C53.6680654,23.8552284 52.4590503,23.4972499 51.8280912,22.9396499 C51.585089,22.7252155 51.425674,22.4455338 51.4905686,22.127409 C51.6263535,21.4576542 52.7687105,21.2037187 53.8105514,21.0989703 C52.6025944,20.7744972 51.5201944,20.4020585 50.9798761,20.0148069 C50.721003,19.8285875 50.5379578,19.5668929 50.5957987,19.251237 C50.7107751,18.6238047 51.623532,18.5067123 52.1758417,18.4439338 C52.5257084,18.4044327 52.8829815,18.3790391 53.2413127,18.3631682 C51.7303966,17.9145488 50.3344568,17.4045617 49.856917,16.9467725 C49.6608224,16.7587897 49.5493729,16.5076757 49.6230847,16.2459811 C49.79696,15.6280714 50.736874,15.6178434 51.2870675,15.6132585 C51.9480052,15.6072628 52.6272826,15.6509961 53.290689,15.7060155 C52.957046,15.5310822 52.6304568,15.3498004 52.3133901,15.1628757 C51.7360396,14.8225316 50.0258546,13.8787381 50.4497858,13.0612069 C50.7277041,12.5254735 51.4813987,12.6446822 51.9815105,12.7526047 C53.0956525,12.99208 54.2648138,13.3246649 55.4106976,13.6971037 C54.9913514,13.2368456 54.6097428,12.752252 54.2845643,12.2496714 C53.9516267,11.7350994 53.0649686,10.2940155 53.9223535,9.84116387 C54.4344568,9.57065204 54.9218718,9.98259183 55.2287105,10.3218778 C55.7580955,10.9080456 56.5146116,11.5562865 57.3141557,12.1791338 C57.1759019,11.8550133 57.0612783,11.5361832 56.9762804,11.2371037 C56.8380267,10.751452 56.4987406,9.80801118 57.1501557,9.51316387 C57.7557213,9.23877247 58.3062675,9.92439828 58.6388525,10.2926047 C59.2158503,10.9309703 59.7678073,11.5954348 60.3338718,12.243323 C61.3633686,13.4220069 62.8661729,14.6617058 64.3464052,15.659108 C64.3308869,15.4831166 64.3351191,15.3198219 64.3626288,15.1819209 C64.415532,14.9152886 64.5597815,14.6775768 64.8535708,14.5830563 C65.5589471,14.3552198 66.3006503,15.4478477 66.6797901,15.8753058 C67.6814245,17.0053187 68.7257342,18.0623252 69.864917,19.0773617 C70.23136,19.403951 70.6016826,19.7266606 70.974474,20.0469015 L70.9889342,20.0595983 C71.3574933,20.3766649 71.7285213,20.6912628 72.1013127,21.0033918 L72.3086933,21.1772671 L72.3076353,21.1998391 C73.8979062,22.5679166 75.4994632,23.9261187 77.1179492,25.2659811 C78.7505428,26.6167768 80.4550847,28.0391682 82.1998331,29.2619381 C83.6077643,30.2484069 84.3787406,31.4507209 84.9892439,32.950351 C85.2960826,33.7054563 85.6847449,35.0365015 86.3220525,35.5877531 C86.4596009,35.7069617 86.6112568,35.7979553 86.7808998,35.8656714 C88.4420611,35.7150735 90.1187406,35.4293961 91.7220611,35.0072284 C92.8841686,34.7010951 94.3770976,34.4852499 95.5120482,34.9973531 C95.8248826,35.1387811 96.1669901,35.3771983 96.3853041,35.6642865 C97.2077729,35.8787209 98.1840138,36.3305144 98.6082976,36.9865144 C98.974388,37.5522262 99.1256912,38.3644671 98.8424826,38.9894305 L98.6026546,39.5191682 C97.8701213,38.7139811 97.4599449,38.8776284 97.4599449,38.8776284 L97.4599449,38.8783338 C97.2747837,38.8818606 97.0656396,38.9841402 96.9291492,39.062437 C96.3338116,39.4048972 95.7815019,39.9296972 95.3332353,40.4407424 C97.19296,41.4762348 99.0992396,42.4376628 101.041846,43.3349015 C102.451188,43.9856112 103.872521,44.5435639 105.351343,45.0422649 C105.910001,45.2306004 107.278784,45.5180413 107.267145,46.2089574 C107.262207,46.4988671 107.059412,46.6988413 106.797717,46.825809 C106.671455,46.8875295 106.532848,46.9362004 106.386483,46.9739381 C107.875532,47.9029187 109.599119,48.7680628 111.114268,49.2681746 C111.960366,49.5475037 112.818104,49.8099037 113.658207,50.1015768 C114.142448,50.2694563 115.029106,50.5216284 114.941287,51.1402434 C114.846766,51.8061187 113.763308,51.7994176 113.22299,51.8293961 C112.91862,51.8463252 112.589562,51.8480886 112.24816,51.8339811 C113.11013,52.2949445 113.977743,52.7104112 114.725089,52.969637 C115.170534,53.1244671 115.754586,53.4094391 115.643136,53.9441144 C115.456917,54.8339467 113.688186,54.5144112 113.059695,54.3920284 C112.458009,54.2742305 111.854913,54.106351 111.263807,53.9010865 C111.991403,54.7274348 112.686551,55.5841144 113.275541,56.4245703 C113.550637,56.8171123 113.91179,57.4142133 113.468461,57.82968 C112.783893,58.4712198 111.258517,57.3140499 110.720668,56.9306778 C110.430405,56.7240026 110.142964,56.507452 109.859403,56.2831424 C110.11616,56.8001832 110.365511,57.3316843 110.564074,57.8635381 C110.741476,58.3379037 111.031738,59.1335682 110.469906,59.4883725 C110.222672,59.6442606 109.930646,59.6294477 109.668951,59.5190563 C109.054921,59.2598305 108.101958,58.267366 107.16804,57.1532241 C107.474526,58.0959596 107.710827,59.250308 107.076693,59.579366 C106.773382,59.7370176 106.441149,59.6647166 106.163584,59.5017746 C105.593287,59.1660155 104.86428,58.371409 104.143033,57.4565359 C104.363111,58.3530692 104.457984,59.3596413 103.843248,59.6925789 C103.537468,59.8583424 103.193244,59.8114348 102.89099,59.6707123 C102.118956,59.3106176 101.36385,58.4070305 100.722311,57.4015166 C100.645072,57.6688542 100.496943,57.8899897 100.235248,58.0007338 C99.9453385,58.1234692 99.6384998,58.0638649 99.3775105,57.9132671 C99.008246,57.6988327 98.66896,57.3189875 98.3709385,56.8721316 C98.2887622,56.9835811 98.1808396,57.0763381 98.0408224,57.14088 C97.6563923,57.3172241 97.2596181,57.1814391 96.9414933,56.9581875 C96.4470245,56.6118477 96.0022847,56.0560112 95.635489,55.4504456 C95.564246,55.5171037 95.4792482,55.5724757 95.3780267,55.6130348 C95.137846,55.7093187 94.8765041,55.6853359 94.645846,55.5788241 C94.4017858,55.4666692 94.1817084,55.2836241 93.9894933,55.0646047 C93.7073428,55.2952628 93.3006933,55.3439338 92.813631,55.091409 C92.5103191,54.9341101 92.2881256,54.756708 92.0440654,54.5323983 C91.4162804,53.9543424 90.8657342,53.8213789 89.9900095,53.6531467 C89.4722632,53.5540413 88.9485213,53.3886305 88.456874,53.2221617 L88.4448826,53.2182822 C87.6509815,52.9484757 86.8648396,52.6374047 86.0931578,52.3164585 C85.232246,52.0276069 83.9068439,51.6523467 83.1616138,51.2076069 C82.2492095,50.6627037 81.7106546,50.2444155 80.9534331,49.5602004 C80.6356611,49.2731123 80.3083665,49.089009 79.9144138,48.8989101 C79.2160912,48.5620929 78.3495363,48.7028155 77.715403,49.10488" id="Fill-13" fill="#FFFFFF"></path><path d="M100.774791,43.8274658 C105.144597,45.8451948 107.277655,45.9707518 106.520081,46.3386056 C105.763212,46.7061067 104.553844,46.4172551 104.553844,46.4172551 C104.553844,46.4172551 107.667728,48.7150185 110.913165,49.7868378 C114.158601,50.8583045 115.504459,51.1499776 113.186945,51.2794142 C110.869784,51.4092034 109.106343,50.6548034 109.106343,50.6548034 C109.106343,50.6548034 112.613122,52.8248938 114.514816,53.4854787 C116.415806,54.145711 113.038464,54.539311 108.911659,52.2253239 C108.911659,52.2253239 111.385414,54.7421067 112.774653,56.7238615 C114.163186,58.705969 110.504752,56.4836809 107.730859,53.5637755 C107.730859,53.5637755 111.206954,59.5615905 109.916821,59.0180981 C108.62704,58.4731948 105.064889,53.4519733 105.064889,53.4519733 C105.064889,53.4519733 107.945294,59.896997 106.484459,59.0371432 C105.023978,58.1776422 102.12347,53.5285067 102.12347,53.5285067 C102.12347,53.5285067 104.870206,59.9763518 103.160021,59.1789239 C101.450188,58.3818486 99.7682185,54.2638615 99.7682185,54.2638615 C99.7682185,54.2638615 100.775849,58.071483 99.6948594,57.4461669 C98.6138701,56.8201454 97.8157368,54.2733841 97.8157368,54.2733841 C97.8157368,54.2733841 98.5271088,57.3788034 97.3022228,56.5196551 C96.0783948,55.6615647 95.3479776,53.4258744 95.3479776,53.4258744 C95.3479776,53.4258744 95.626954,55.4153884 94.9124077,55.0859776 C94.1982142,54.7572723 93.7926228,53.5151045 93.7926228,53.5151045 C93.7926228,53.5151045 94.0387991,55.0951475 93.1055862,54.6109067 C92.1720206,54.1273712 92.4146701,53.5556637 90.1116163,53.1140981 C89.7187217,53.0386228 89.2221368,52.894726 88.6560723,52.7032163 L88.6550142,52.703569 L88.6486658,52.7007475 C87.9538701,52.4644465 87.1553841,52.1544335 86.3184551,51.8056249 C85.1489411,51.4120249 84.0034099,51.0540465 83.4856637,50.7450916 C81.1656809,49.3600852 81.7790056,49.1766873 80.1904981,48.4106486 C78.6023432,47.6442572 77.1316335,48.8250572 77.1316335,48.8250572 C77.1316335,48.8250572 76.8882787,54.3735475 75.969526,55.9870959 C75.0507733,57.5999389 74.1909196,55.5825626 74.1909196,55.5825626 C74.1909196,55.5825626 72.6429712,57.4553368 71.4794529,57.2948637 C70.3155819,57.1336852 71.060812,55.7218744 71.060812,55.7218744 C71.060812,55.7218744 69.5488378,56.8374271 68.5147561,56.5482228 C67.4803217,56.2600766 68.0696637,55.1078443 68.0696637,55.1078443 C68.0696637,55.1078443 65.4470744,56.452997 64.8101196,55.8107518 C64.1724594,55.168154 64.7163045,54.0899862 64.7163045,54.0899862 C64.7163045,54.0899862 62.7324335,54.5502443 62.6615432,53.6653497 C62.5903002,52.7808077 63.2237282,52.2087475 63.2237282,52.2087475 C63.2237282,52.2087475 61.3643561,52.1999303 61.0927862,51.430012 C60.8212163,50.6604465 62.1723647,49.8989927 62.1723647,49.8989927 C62.1723647,49.8989927 60.2100077,50.3225712 60.1038486,49.5399561 C59.9969841,48.7580465 61.6292249,47.7045669 61.6292249,47.7045669 C61.6292249,47.7045669 60.394111,47.9676723 60.0731647,47.1487303 C59.7522185,46.3294357 61.9060852,45.1070185 61.9060852,45.1070185 C61.9060852,45.1070185 58.9413884,44.5801024 59.4415002,43.5756465 C59.9412594,42.5711905 62.5003647,42.333126 62.5003647,42.333126 C62.5003647,42.333126 59.6093798,41.7705884 60.492511,40.6963002 C61.3752895,39.622012 72.5149454,41.315268 72.5149454,41.315268 L73.4210013,40.9766873 L73.3166056,40.7622529 C73.3141368,40.7622529 72.3262572,40.708997 71.3514271,40.0632249 C70.3755389,39.4174529 71.8776378,39.8004723 71.1645024,39.4587174 C70.6880206,39.2301755 68.9986443,37.8945454 67.9299991,37.0329282 C67.665483,36.8449454 67.5046572,36.7267948 67.5046572,36.7267948 C67.3438314,36.5850142 67.1833583,36.4411174 67.0228852,36.2961626 L67.020769,36.2947518 L67.0225325,36.2958099 C65.2336981,34.6822615 63.5034099,32.9600852 62.8505841,31.9408163 C61.651797,30.070511 61.1150056,30.475397 60.3031174,29.8197497 C59.4901712,29.1641024 61.2617239,28.8491518 61.2617239,28.8491518 C61.2617239,28.8491518 59.8026529,28.9108723 59.224597,28.3952422 C58.6468938,27.8799647 60.8677712,27.4563862 60.8677712,27.4563862 C60.8677712,27.4563862 58.2409497,27.5671303 56.9352981,26.7823991 C55.6289411,25.9980206 59.1826271,25.5772637 59.1826271,25.5772637 C59.1826271,25.5772637 56.2002959,25.7335045 55.1891389,24.9963862 C54.1772766,24.259268 58.5770615,23.8631991 58.5770615,23.8631991 C58.5770615,23.8631991 53.6334314,23.7725583 52.2403131,22.5413239 C50.8468422,21.3107948 58.6250271,21.5506228 58.6250271,21.5506228 C58.6250271,21.5506228 52.7277282,20.5712077 51.3462486,19.5794486 C49.9644163,18.5880422 57.7806916,18.9470787 57.7806916,18.9470787 C57.7806916,18.9470787 51.275711,17.5126959 50.2867733,16.5643174 C49.2971303,15.6162916 56.8217325,16.6479045 56.8217325,16.6479045 C52.8180163,15.1976508 49.2840809,12.7365927 51.8460077,13.2889024 C54.4079346,13.840154 57.8850873,15.1630873 57.8850873,15.1630873 C54.1049755,12.3228895 53.4637884,9.23016688 54.7704981,10.6747776 C56.0768551,12.1200938 59.5078056,14.4640594 59.5078056,14.4640594 C59.5078056,14.4640594 58.1436077,13.1721626 57.5532077,11.0969454 C56.9628077,9.02208086 57.6992206,10.1041282 59.869311,12.589169 C62.0401067,15.0738572 65.483754,17.0309239 65.483754,17.0309239 C65.483754,17.0309239 64.7931905,16.0680852 64.9494314,15.2812378 C65.1056723,14.4940378 65.9115647,16.3206099 69.4504378,19.4736422 C69.8038314,19.7885927 70.1790916,20.1158873 70.567754,20.449883 L70.5716335,20.4537626 C70.9380766,20.7687131 71.3161583,21.088954 71.7002357,21.4109583 L71.6995303,21.4296508 C74.0078744,23.417754 79.259754,27.8933669 81.8393153,29.7008938 C85.2029024,32.0582615 84.3014314,35.6454529 86.6965368,36.4270099 C87.9059045,36.3226142 89.8121841,36.0831389 91.8856378,35.5368249 C95.3839518,34.6152508 95.9905755,36.139569 95.9905755,36.139569 C95.9905755,36.139569 97.5787303,36.4693325 98.0961239,37.2688766 C98.6131647,38.068068 98.2918658,38.7769712 98.2918658,38.7769712 C98.2918658,38.7769712 97.8192637,37.9033626 96.6141282,38.5946314 C95.8784206,39.0167991 95.238997,39.6692723 94.8524508,40.1136594 C92.8742228,42.2160335 90.6988422,43.3569798 90.6988422,43.3569798 C92.3652938,42.758468 93.9622658,41.4108465 94.7004422,40.730511 C96.6793755,41.8446529 98.7006314,42.8699174 100.774791,43.8274658" id="Fill-15" fill="#004D9E"></path><path d="M16.023188,109.448803 L24.1678159,104.043505 L24.4288052,104.628614 L24.689089,105.214429 L18.1012267,109.381087 L25.612074,107.287178 L25.9347837,108.011952 L26.2574933,108.736021 L19.7472224,112.859298 L19.7482804,112.861414 L27.1840052,110.816881 L27.4418202,111.395995 L27.6996353,111.975109 L18.2239622,114.392434 L17.91536,113.697991 L17.6067578,113.006016 L24.388246,108.689466 L24.3896568,108.691935 L16.6403923,110.835221 L16.3310847,110.140778 L16.023188,109.448803 Z M20.266732,118.071677 L28.4413385,112.964046 L28.7887363,113.519883 L29.1389557,114.081363 L25.6293557,116.27473 L27.1071191,118.639505 L30.6174245,116.446137 L30.9644697,117.001621 L31.3150417,117.5631 L23.1411406,122.671083 L22.7937428,122.115246 L22.4428181,121.55412 L26.1858976,119.215092 L24.7077815,116.849965 L20.9650546,119.18864 L20.6180095,118.633509 L20.266732,118.071677 Z M26.7664224,127.388287 C26.1248826,126.566877 25.8660095,125.857268 25.9929772,125.261578 C26.1202976,124.664829 26.6690804,123.987668 27.6428525,123.226567 L30.4410804,121.040253 C31.2952912,120.37332 32.0444009,120.059427 32.6859406,120.099986 C33.3285385,120.142309 33.9485643,120.546137 34.5453127,121.310412 C35.1544052,122.0895 35.3984654,122.792055 35.2789041,123.415255 C35.1604009,124.040571 34.659231,124.698335 33.7775105,125.386782 L30.5899148,127.877466 C29.8362202,128.466455 29.1604697,128.721801 28.5619578,128.648442 C27.9616826,128.57332 27.3631708,128.152563 26.7664224,127.388287 Z M27.6223966,126.719238 C27.9309987,127.113896 28.2713428,127.307169 28.6437815,127.300115 C29.0169256,127.292709 29.4662503,127.083565 29.9956353,126.669862 L33.1814675,124.180941 C33.7052095,123.77147 34.0039363,123.407849 34.0772955,123.093603 C34.1534761,122.776889 34.0240396,122.407272 33.6893385,121.978756 C33.381089,121.584098 33.0347492,121.395763 32.6496138,121.413044 C32.2634202,121.430679 31.7918761,121.656399 31.2374503,122.090206 L28.4371062,124.27793 C27.7941557,124.780511 27.4164267,125.2055 27.2986288,125.554662 C27.180831,125.904175 27.2880482,126.291074 27.6223966,126.719238 Z M30.6481084,131.787367 L37.3435406,124.853517 L37.8150847,125.308485 L38.2915665,125.768038 L32.3498288,131.920683 L34.3657944,133.867522 L33.9901815,134.256537 L33.6113944,134.648726 L30.6481084,131.787367 Z M35.5409514,136.466481 L41.4752826,128.871341 L44.8783708,131.529552 L44.5450804,131.955952 L44.2093213,132.385879 L41.8445471,130.538851 L39.9654245,132.943831 L42.1905342,134.682584 L41.8575966,135.108279 L41.5214847,135.538558 L39.2963751,133.799806 L37.2479622,136.421689 L39.6825686,138.324089 L39.3492783,138.750489 L39.0142245,139.180416 L35.5409514,136.466481 Z M44.0587234,142.538008 L49.0228095,134.276287 L52.6308095,136.443203 L52.3518331,136.906988 L52.0710933,137.375006 L49.5931062,135.885956 L48.0208224,138.50255 L50.3870073,139.923883 L50.1087363,140.387315 L49.8272912,140.855332 L47.4611062,139.433294 L45.188031,143.216932 L44.6261987,142.879057 L44.0587234,142.538008 Z M52.607532,147.210421 C51.6630331,146.769913 51.1103708,146.255341 50.9527191,145.667057 C50.7957729,145.07701 50.9770546,144.224915 51.4993858,143.104778 L52.9997213,139.886851 C53.4585686,138.903909 53.9833686,138.284588 54.5734159,138.029595 C55.1652267,137.775659 55.9005815,137.853603 56.7798331,138.263427 C57.6756611,138.681363 58.2124525,139.196287 58.3887966,139.805732 C58.5672568,140.416941 58.4191277,141.23024 57.9461729,142.244218 L56.2366933,145.911117 C55.8325127,146.777672 55.3465084,147.311642 54.7793858,147.518317 C54.2101471,147.723935 53.4867837,147.620244 52.607532,147.210421 Z M53.066732,146.225715 C53.5209944,146.437681 53.9117729,146.455668 54.2404783,146.279677 C54.5695363,146.103685 54.8749643,145.713612 55.1588783,145.104872 L56.8676525,141.440442 C57.1483923,140.838403 57.2496138,140.378145 57.1723751,140.064958 C57.0958417,139.748244 56.8129858,139.477732 56.3202804,139.248132 C55.8663708,139.03652 55.4727708,139.025234 55.1370116,139.215685 C54.8008998,139.406489 54.4838331,139.821956 54.1861643,140.459969 L52.6844181,143.68107 C52.3391363,144.420305 52.1959449,144.970851 52.2495535,145.33553 C52.3035148,145.700563 52.5743794,145.996468 53.066732,146.225715 Z M60.6385944,150.417062 C59.659532,150.060846 59.0645471,149.596003 58.8557557,149.023591 C58.6476697,148.449767 58.7541815,147.584975 59.1770546,146.423573 L60.39136,143.086438 C60.762388,142.067874 61.2318159,141.404821 61.7971751,141.099745 C62.3646503,140.795023 63.1042374,140.808778 64.0155837,141.140305 C64.9442116,141.478532 65.524031,141.945139 65.7525729,142.53695 C65.9835837,143.130171 65.9070503,143.953345 65.5243837,145.004709 L64.1411406,148.805982 C63.813846,149.704631 63.37616,150.279513 62.8294933,150.534507 C62.2803578,150.789148 61.5499406,150.749294 60.6385944,150.417062 Z M61.0106804,149.396382 C61.4815191,149.567788 61.8722976,149.550859 62.1847794,149.347711 C62.4972611,149.143152 62.7674202,148.728038 62.9970202,148.097079 L64.3795578,144.298274 C64.6070417,143.673311 64.6677041,143.206352 64.5636611,142.900571 C64.4596181,142.592322 64.1541901,142.346851 63.6438503,142.161337 C63.1726589,141.990283 62.7797643,142.01356 62.4616396,142.232227 C62.1438675,142.451952 61.8638331,142.893517 61.6229471,143.554808 L60.4075837,146.894059 C60.1282546,147.661156 60.0340869,148.22193 60.1190847,148.580614 C60.2040826,148.938945 60.499988,149.210515 61.0106804,149.396382 Z M66.3472052,151.755866 L68.186474,142.293595 L68.8297772,142.418799 L70.4930546,142.741862 C71.5828611,142.953827 72.3277385,143.326266 72.7276869,143.85812 C73.1272826,144.391737 73.232031,145.151074 73.0398159,146.140012 L72.3228009,149.827014 C72.1182417,150.877672 71.7856568,151.601388 71.323988,151.996399 C70.8626718,152.390705 70.2105514,152.506386 69.3704482,152.343092 L66.9905084,151.880717 L66.3472052,151.755866 Z M67.8475406,150.940803 L69.1616568,151.195444 C69.7220783,151.304778 70.1382503,151.240941 70.4094675,151.006051 C70.6828009,150.771513 70.8887708,150.301027 71.0256138,149.596003 L71.7422761,145.909001 C71.8699492,145.254059 71.8382073,144.77793 71.6488138,144.472855 C71.460831,144.169896 71.0598245,143.959341 70.4464998,143.840132 L69.2720482,143.611591 L67.8475406,150.940803 Z M79.180117,146.566059 L79.2048052,146.281087 C79.2534761,145.72772 79.1995148,145.325302 79.0408052,145.077715 C78.880332,144.826954 78.5904224,144.684468 78.1679019,144.647788 C77.6967105,144.606171 77.3461385,144.683057 77.1154804,144.878446 C76.8855277,145.073836 76.7511535,145.407831 76.7091837,145.884313 C76.6756783,146.270154 76.742689,146.575582 76.9102159,146.80095 C77.0777428,147.026317 77.4695794,147.33633 78.0829041,147.732046 C79.0362202,148.346429 79.6555406,148.856769 79.9387492,149.265535 C80.2187837,149.6743 80.3284697,150.212502 80.2699234,150.879788 C80.1898632,151.796778 79.8950159,152.463711 79.388203,152.880941 C78.8810374,153.297113 78.1594374,153.466051 77.2258718,153.383874 C76.2249428,153.29676 75.5368482,153.00015 75.1644095,152.497216 C74.8208912,152.034137 74.6911019,151.320649 74.7753944,150.356399 L74.8046675,150.099642 L74.8300611,149.813612 L76.1635751,149.930705 L76.1385342,150.216029 C76.0637643,150.963023 76.1117299,151.487117 76.2799622,151.784434 C76.4478417,152.082808 76.7931234,152.255625 77.3207449,152.30218 C77.8497772,152.348382 78.2440826,152.260915 78.5018976,152.038016 C78.7579492,151.816881 78.9110159,151.429982 78.9589815,150.882257 C78.9956611,150.463616 78.9173643,150.129268 78.7223277,149.872864 C78.5287019,149.622102 78.0836095,149.274352 77.3835234,148.824674 C76.5666976,148.294584 76.0090976,147.814928 75.7079019,147.381474 C75.4105858,146.952958 75.288203,146.453199 75.3382847,145.881844 C75.4130546,145.029044 75.6937944,144.410077 76.1790933,144.024236 C76.6668611,143.638748 77.3616568,143.486386 78.2652439,143.565036 C79.2079794,143.64827 79.8481084,143.900795 80.1884525,144.323315 C80.4998761,144.715857 80.6219062,145.334825 80.5527794,146.178808 L80.5242116,146.396064 L80.4995234,146.681741 L79.180117,146.566059 Z M85.7245987,145.535857 C85.6572353,144.985664 85.8145342,144.508124 86.1989643,144.103943 C86.581631,143.697646 87.1110159,143.453939 87.7842976,143.37141 C88.5013127,143.283591 89.0839535,143.375642 89.529046,143.65215 C89.9741385,143.92901 90.2308955,144.353646 90.3010804,144.92747 C90.3779665,145.552434 90.2587578,146.11215 89.94416,146.610851 C89.7029213,147.002687 89.3068525,147.391702 88.7534847,147.781775 L91.1168482,150.117629 C91.141889,149.935995 91.1500009,149.718739 91.1468267,149.465509 C91.1390675,148.942472 91.0671191,148.180666 90.9302761,147.182911 L91.5062159,147.112021 L92.0825084,147.041836 C92.250388,148.406739 92.3265686,149.311031 92.3131665,149.759298 C92.2987062,150.157836 92.1964267,150.567659 92.0056224,150.985595 L93.529588,152.494748 L92.8263277,152.580803 L92.1135449,152.668623 L91.3792482,151.948434 C91.1891492,152.160046 90.9771837,152.350145 90.7405299,152.522257 C90.2425342,152.872124 89.6651837,153.086558 89.0105944,153.166971 C88.0198933,153.288296 87.2175277,153.145457 86.6017342,152.736692 C85.9877041,152.328279 85.6283148,151.698025 85.5239191,150.849457 C85.4385686,150.15713 85.5556611,149.538868 85.8741385,148.99467 C86.1245471,148.564391 86.5244955,148.134816 87.0785686,147.705242 C86.6652181,147.286249 86.3583794,146.93356 86.1636955,146.647883 C85.9171665,146.282851 85.7711535,145.913586 85.7245987,145.535857 Z M88.7993342,152.194963 C89.2296138,152.141707 89.6475492,151.965715 90.0552568,151.668752 C90.261932,151.514627 90.4410976,151.349569 90.5927535,151.16864 L87.785003,148.409913 C87.4379578,148.680425 87.1752052,148.9527 86.9963923,149.221096 C86.7498632,149.601646 86.6542847,150.026283 86.7117729,150.496769 C86.7812525,151.061423 87.0140267,151.502283 87.4058632,151.822877 C87.7920568,152.137827 88.2583105,152.261268 88.7993342,152.194963 Z M86.9269127,145.515754 C86.9526589,145.724193 87.0581127,145.950266 87.2436267,146.200322 C87.4005729,146.406644 87.653803,146.690558 88.0054331,147.051006 C88.3828095,146.788606 88.6607277,146.531496 88.8413041,146.279324 C89.0966503,145.930163 89.1996353,145.544674 89.1474374,145.118627 C89.1146374,144.852348 88.9834374,144.64532 88.7541901,144.496838 C88.5274116,144.351178 88.2456138,144.29898 87.9172611,144.339539 C87.5864396,144.380098 87.3296826,144.509887 87.1452267,144.729965 C86.9635923,144.949689 86.8898804,145.212089 86.9269127,145.515754 Z M98.4358331,151.562945 L97.8993944,141.68944 L98.7394976,141.448201 L99.5870073,141.205552 L104.359584,149.864752 L103.689829,150.056614 L103.012315,150.250945 L101.984582,148.272365 L99.5055363,148.983384 L99.668831,151.209905 L99.052332,151.386249 L98.4358331,151.562945 Z M99.0315234,142.601844 L99.4258288,147.875943 L101.487997,147.284838 L99.0248224,142.604313 L99.0315234,142.601844 Z M108.750904,148.176434 L105.546732,140.24624 L103.489149,141.078231 L103.286354,140.577062 L103.082147,140.070249 L108.41973,137.913913 L108.622173,138.415436 L108.826379,138.921543 L106.768797,139.752829 L109.972616,147.68267 L109.364934,147.928494 L108.750904,148.176434 Z M114.530052,145.791203 L109.565614,137.528778 L110.127446,137.191608 L110.694569,136.850206 L112.826216,140.398249 L115.216736,138.962102 L113.085089,135.414059 L113.646921,135.076889 L114.214044,134.735487 L119.178835,142.997913 L118.617003,143.335788 L118.049528,143.676485 L115.776452,139.893199 L113.385932,141.330051 L115.659007,145.112984 L115.097528,145.450154 L114.530052,145.791203 Z M121.831756,141.243995 L116.16582,133.446412 L116.696263,133.060924 L117.231997,132.672262 L122.258861,139.591298 L124.526293,137.944244 L124.844065,138.381225 L125.164659,138.822791 L121.831756,141.243995 Z M127.311825,137.269199 L120.988126,129.994653 L124.246964,127.161509 L124.601769,127.569569 L124.959747,127.981156 L122.694784,129.950214 L124.6977,132.253973 L126.828994,130.401302 L127.183446,130.809363 L127.541425,131.221302 L125.41013,133.073973 L127.59327,135.58476 L129.924891,133.557862 L130.279695,133.966627 L130.638027,134.378214 L127.311825,137.269199 Z M133.973399,130.975831 L127.718121,125.143427 L126.204736,126.766851 L125.809373,126.397939 L125.41013,126.025853 L129.335902,121.815462 L129.731618,122.184373 L130.130861,122.556459 L128.617123,124.17953 L134.871695,130.012287 L134.425192,130.491591 L133.973399,130.975831 Z M138.077278,126.244167 L130.378801,120.443152 L130.773459,119.919763 L131.171644,119.391083 L138.869769,125.192098 L138.475463,125.715487 L138.077278,126.244167 Z M140.930878,116.585449 L141.174233,116.738163 C142.078878,117.265431 142.625545,117.820915 142.80859,118.403203 C142.992693,118.985139 142.839979,119.668296 142.353622,120.447384 C141.872908,121.216244 141.335412,121.671917 140.739369,121.811229 C140.144384,121.953715 139.465812,121.785483 138.704711,121.310412 L135.066379,119.036631 C134.184306,118.485732 133.662328,117.908735 133.494801,117.301406 C133.32939,116.694782 133.500444,115.984821 134.009726,115.170464 C134.493261,114.397018 135.015945,113.956864 135.579188,113.847178 C136.074009,113.741371 136.637958,113.889853 137.272091,114.291917 L137.541545,114.467909 L137.7849,114.619917 L137.086577,115.737586 L136.843222,115.585578 C136.358982,115.260399 135.980547,115.109801 135.706508,115.130257 C135.433175,115.149655 135.176771,115.352451 134.937295,115.736175 C134.673132,116.159401 134.590603,116.533956 134.688298,116.856313 C134.786345,117.179023 135.082603,117.492915 135.57284,117.799401 L139.211171,120.072829 C139.782878,120.430102 140.227265,120.597629 140.541863,120.574352 C140.856461,120.551074 141.146723,120.328175 141.409829,119.907066 C141.649304,119.523341 141.695154,119.172769 141.548435,118.852881 C141.402422,118.532993 141.044091,118.199702 140.475911,117.855479 L140.232556,117.70347 L140.930878,116.585449 Z M140.679412,109.078834 L140.421597,108.952924 C139.923248,108.709922 139.527885,108.615754 139.239386,108.675358 C138.948065,108.735668 138.711412,108.954687 138.525192,109.336296 C138.317812,109.761638 138.264203,110.116089 138.364014,110.400709 C138.464177,110.686034 138.727635,110.931152 139.157562,111.141001 C139.505313,111.310997 139.81462,111.357552 140.084779,111.281724 C140.355291,111.205896 140.785571,110.95196 141.37456,110.520623 C142.289786,109.851573 142.988461,109.455857 143.471644,109.338412 C143.953063,109.223083 144.495145,109.313371 145.096831,109.606808 C145.92459,110.010636 146.441631,110.524502 146.649364,111.14735 C146.85604,111.770197 146.755171,112.503788 146.344642,113.34636 C145.903782,114.249595 145.380392,114.785681 144.777295,114.953208 C144.221812,115.108038 143.509029,114.973311 142.6393,114.549027 L142.410405,114.429113 L142.15259,114.303909 L142.739111,113.100537 L142.996926,113.226094 C143.667386,113.563969 144.173846,113.706808 144.512074,113.656373 C144.850302,113.606292 145.135979,113.34636 145.368048,112.869879 C145.60047,112.392692 145.660427,111.993449 145.544745,111.672855 C145.430121,111.354378 145.123635,111.072932 144.629519,110.831694 C144.252143,110.647591 143.911446,110.601036 143.602844,110.690971 C143.299179,110.781965 142.814586,111.07258 142.144478,111.564932 C141.35622,112.137698 140.708685,112.486507 140.196229,112.612416 C139.689769,112.736563 139.179076,112.671315 138.663446,112.420201 C137.894233,112.044588 137.417046,111.560348 137.230827,110.969242 C137.046018,110.375668 137.15253,109.672408 137.550009,108.856993 C137.964771,108.007014 138.429966,107.499849 138.947007,107.33338 C139.425252,107.183135 140.046336,107.291763 140.809201,107.658206 L141.002121,107.762954 L141.259936,107.888511 L140.679412,109.078834 Z" id="Fill-17" fill="#004D9E"></path></g></g></g></g></svg> 